<svg width="565" height="577" viewBox="0 0 565 577" fill="none" xmlns="http://www.w3.org/2000/svg">
<path fill-rule="evenodd" clip-rule="evenodd" d="M485.918 52.4989C484.572 53.2012 477.599 55.0321 470.421 56.569C452.04 60.502 438.649 65.1667 432.644 69.7268C429.811 71.8779 423.938 74.8178 419.594 76.2584C415.25 77.6989 400.317 85.0275 386.411 92.5439C372.504 100.06 353.418 109.308 343.998 113.096C328.75 119.227 324.9 120.098 308.925 121.029C292.33 121.996 290.092 122.539 279.161 128.258C258.968 138.82 246.989 152.45 240.624 172.108C239.456 175.716 227.373 176.038 219.333 172.675C211.167 169.26 201.293 159.582 195.518 149.34C192.699 144.337 186.872 136.721 182.571 132.413C171.708 121.538 163.328 119.207 139.905 120.55C122.331 121.556 121.773 121.476 103.518 115.361C93.3223 111.944 83.799 109.604 82.3553 110.157C77.7584 111.923 79.5153 117.671 86.918 125.081C98.9176 137.095 114.756 143.679 142.055 147.998C170.046 152.427 174.546 153.82 191.066 163.164C199.813 168.112 206.971 172.69 206.971 173.335C206.971 173.982 202.749 174.95 197.591 175.491C190.75 176.205 185.342 175.618 177.608 173.322C171.777 171.59 157.462 168.277 145.799 165.956C129.528 162.72 122.124 160.362 113.989 155.826C98.2308 147.04 94.0417 144.92 69.7554 133.435C46.0188 122.209 31.9442 113.359 18.6739 101.308C3.74612 87.7535 -1.12974 87.1704 0.212791 99.1C1.53901 110.883 10.1733 126.917 20.7961 137.324C36.6227 152.83 58.989 160.482 95.2293 162.794C105.098 163.422 117.578 165.247 122.961 166.847C128.344 168.446 139.722 170.947 148.245 172.404C169.749 176.079 171.339 176.495 170.297 178.187C168.131 181.696 154.614 181.722 134.887 178.258C119.085 175.483 109.81 174.821 92.6959 175.243C72.5677 175.739 69.9952 176.159 61.4751 180.348C49.2813 186.344 37.161 197.426 30.1368 209.006C27.0194 214.144 22.1958 220.375 19.4177 222.853C13.4897 228.142 14.413 231.147 21.6069 229.987C34.8838 227.844 84.7794 217.105 99.42 213.239C108.434 210.86 116.158 209.259 116.583 209.685C117.757 210.861 93.9765 239.075 86.8658 244.943C83.4303 247.779 79.4092 250.098 77.9297 250.098C76.4485 250.098 74.3311 251.192 73.2235 252.528C68.0213 258.805 83.7337 256.714 111.08 247.491C131.786 240.509 139.065 233.238 153.96 204.655C162.627 188.025 166.72 185.305 187.557 182.341C196.888 181.013 212.118 179.912 221.398 179.896L238.272 179.866L237.115 188.441C236.479 193.158 235.31 198.254 234.515 199.766C230.509 207.4 235.324 208.142 242.146 200.942C244.781 198.163 254.278 190.535 263.25 183.995C278.612 172.797 280.204 172.038 290.574 170.955C296.631 170.323 301.585 170.365 301.585 171.048C301.585 171.731 298.562 176.933 294.869 182.61C289.003 191.624 287.504 192.938 283.042 192.972C272.326 193.057 262.938 196.694 247.859 206.61C227.14 220.232 217.964 229.855 209.999 246.32C204.957 256.741 203.209 262.686 202.081 273.27C201.232 281.232 199.245 289.522 197.277 293.317C192.89 301.774 193.035 307.683 197.761 313.186C201.172 317.156 203.136 317.788 215.297 318.838C222.83 319.488 233.008 321.192 237.913 322.624C249.758 326.084 274.501 326.072 284.807 322.602C301.736 316.901 310.604 311.299 324.595 297.464C335.495 286.684 339.954 280.841 344.538 271.331C352.665 254.464 356.611 236.788 357.844 211.716C358.653 195.286 359.643 188.9 362.219 183.487C364.049 179.641 366.317 171.004 367.256 164.296C368.196 157.588 369.478 152.1 370.103 152.1C371.336 152.1 384.314 166.908 392.29 177.416C399.449 186.85 400.792 191.716 401.523 210.899C402.02 223.9 403.033 229.976 405.713 236.014C409.832 245.298 410.518 260.076 406.965 263.029C405.709 264.072 403.03 269 401.012 273.978C396.789 284.396 394.007 286.011 380.187 286.07C367.751 286.124 358.209 288.497 346.526 294.44C328.282 303.722 316.956 314.745 307.146 332.767C299.097 347.55 285.952 366.062 283.502 366.062C282.682 366.062 282.009 367.532 282.009 369.328C282.009 373.407 284.344 373.47 289.915 369.542C300.792 361.871 310.909 358.583 345.573 351.457C372.845 345.85 394.559 323.818 401.2 295.014C404.397 281.149 407.978 268.946 409.27 267.519C409.947 266.769 411.575 267.69 412.886 269.564C414.772 272.26 415.178 278.063 414.829 297.334C414.413 320.287 414.121 322.244 409.779 331.165C405.73 339.482 403.19 342.049 388.858 352.305C376.422 361.203 371.091 366.228 366.428 373.446C363.064 378.653 360.31 384.479 360.31 386.391C360.31 388.768 357.594 391.7 351.746 395.639C340.127 403.464 333.776 412.338 328.266 428.449C323.483 442.435 322.902 451.297 324.176 490.876C324.375 497.093 323.719 506.133 322.716 510.968C321.166 518.442 321.294 520.369 323.559 523.831C327.786 530.29 333.161 531.462 353.785 530.425C371.129 529.553 402.229 523.949 413.005 519.753C419.493 517.228 430.391 508.118 433.026 503.017C434.254 500.639 436.011 495.342 436.926 491.246C437.843 487.151 440.758 480.383 443.405 476.205C448.898 467.532 448.89 467.565 453.559 437.927C459.121 402.613 459.113 399.866 453.377 379.176C447.813 359.104 443.543 349.6 432.696 333.158C420.53 314.714 419.627 311.035 420.671 284.17C421.085 273.537 420.61 270.807 417.463 265.709C415.433 262.418 414.203 259.292 414.733 258.763C415.261 258.233 419.566 261.098 424.298 265.129C429.031 269.16 436.205 274.512 440.242 277.023C444.28 279.533 452.831 286.262 459.247 291.976C465.661 297.689 471.692 302.363 472.648 302.363C473.604 302.363 477.015 300.052 480.228 297.228C485.818 292.312 486.35 292.177 492.598 294.05C496.19 295.128 502.733 298.138 507.141 300.74C511.547 303.342 518.302 306.368 522.15 307.467C531.24 310.064 560.219 309.909 563.423 307.247C566.188 304.949 565.173 302.363 561.504 302.363C555.567 302.363 541.428 293.186 531.292 282.751C525.294 276.575 517.953 270.284 514.979 268.77C512.005 267.256 509.33 265.805 509.033 265.549C508.738 265.291 509.588 263.364 510.924 261.265C515.225 254.501 517.477 238.415 517.512 214.166C517.553 186.661 515.402 176.187 505.598 156.184C494.241 133.015 483.336 123.436 455.74 112.395C444.479 107.89 440.203 105.277 437.388 101.182C433.024 94.8338 432.691 86.9761 436.453 79.0399C439.853 71.8681 450.431 66.8163 469.892 63.0712C486.324 59.9091 490.812 58.1893 490.812 55.0501C490.812 51.9011 488.937 50.9227 485.918 52.4989ZM414.142 86.4844C414.142 87.2259 412.206 89.6138 409.841 91.7926C407.475 93.9698 401.632 101 396.857 107.415L388.177 119.078L373.894 121.109C357.017 123.506 348.971 126.193 332.854 134.815C321.48 140.899 318.956 143.351 307.798 159.168C305.89 161.871 302.88 163.367 298.042 164.017C294.193 164.535 290.794 164.706 290.487 164.399C290.18 164.094 293.686 159.179 298.278 153.481C302.869 147.78 307.865 139.625 309.381 135.359C311.917 128.223 312.571 127.601 317.535 127.601C329.187 127.601 352.087 117.352 409.248 86.553C412.439 84.8332 414.142 84.8103 414.142 86.4844ZM427.2 90.4435C427.205 93.3639 429.018 98.6917 431.228 102.285C433.438 105.878 435.27 109.747 435.298 110.884C435.326 112.021 430.987 118.446 425.657 125.162C414.039 139.8 404.299 158.839 403.133 169.188C402.666 173.333 401.72 176.513 401.028 176.255C398.909 175.46 371.728 145.985 371.749 144.506C371.76 143.741 374.294 141.481 377.378 139.48C380.463 137.481 388.114 129.202 394.379 121.084C407.152 104.537 424.108 85.2693 425.969 85.1892C426.643 85.1598 427.196 87.5232 427.2 90.4435ZM31.202 119.154C44.8736 128.383 59.2011 136.016 82.1563 146.301C91.1152 150.314 98.73 154.447 99.0758 155.486C99.5374 156.874 96.0857 157.075 86.0485 156.242C49.7332 153.229 25.734 140.123 13.1145 116.416C6.03152 103.111 6.22075 99.603 13.6659 106.149C16.8077 108.911 24.6981 114.762 31.202 119.154ZM460.562 120.094C480.762 129.545 490.074 138.309 499.485 156.726C508.705 174.767 510.028 179.092 511.809 197.016C513.553 214.571 511.829 238.864 507.839 252.979C504.464 264.914 502.927 265.118 491.053 255.207C470.561 238.101 460.686 234.363 442.719 236.911C433.561 238.209 430.786 237.99 425.016 235.514C421.253 233.899 417.176 231.376 415.958 229.906C414.739 228.434 412.765 227.232 411.57 227.232C408.116 227.232 407.134 217.311 407.945 190.587L408.7 165.712L415.501 152.252C419.24 144.849 426.338 134.026 431.27 128.204C436.205 122.379 440.242 116.555 440.242 115.258C440.242 111.493 444.189 112.433 460.562 120.094ZM104.074 122.258C114.116 126.43 116.375 126.719 139.274 126.75C167.879 126.791 169.571 127.384 182.298 141.842C193.05 154.052 193.099 156.661 182.476 151.271C176.84 148.411 167.579 146.101 152.705 143.846C128.256 140.138 118.793 137.463 105.567 130.516C95.8703 125.424 87.2263 117.801 91.1462 117.801C92.3533 117.801 98.1704 119.807 104.074 122.258ZM381.517 125.778C381.517 128.351 368.534 139.049 361.473 142.294C343.402 150.601 320.566 158.692 319.16 157.284C313.888 152.006 345.298 132.323 366.835 127.41C381.879 123.978 381.517 124.018 381.517 125.778ZM296.691 128.447C296.691 128.913 285.313 140.555 271.406 154.318C257.5 168.082 246.122 178.176 246.123 176.747C246.125 171.288 255.837 154.251 262.762 147.561C271.272 139.338 296.691 125.017 296.691 128.447ZM303.17 136.992C303.146 137.667 300.963 141.077 298.322 144.573C295.681 148.068 293.98 151.672 294.541 152.582C295.104 153.494 294.823 153.779 293.918 153.219C293.012 152.659 290.513 154.109 288.363 156.442C281.796 163.573 256.826 181.805 256.201 179.928C255.443 177.647 271.108 161.275 287.719 146.99C300.187 136.269 303.271 134.273 303.17 136.992ZM472.868 144.551C472.868 145.788 473.904 147.661 475.17 148.713C478.272 151.292 480.39 147.921 477.703 144.679C475.215 141.678 472.868 141.616 472.868 144.551ZM363.876 150.944C364.313 159.955 358.151 181.64 354.126 185.248C350.144 188.818 324.838 189.717 322.768 186.362C320.387 182.502 318.928 166.748 320.781 164.892C322.763 162.908 360.537 148.84 362.472 149.366C363.212 149.567 363.844 150.278 363.876 150.944ZM484.287 160.719C484.287 161.867 485.473 164.502 486.923 166.575C490.725 172.01 493.626 168.494 489.96 162.892C486.98 158.338 484.287 157.307 484.287 160.719ZM299.472 201.267C295.539 211.505 291.043 223.366 289.484 227.624C287.923 231.88 285.97 235.784 285.143 236.295C279.928 239.522 290.481 202.683 298.735 188.849C307.978 173.359 308.275 178.36 299.472 201.267ZM129.894 182.419C136.725 184.458 133.615 186.117 120.922 187.203C99.8506 189.006 61.2891 198.922 46.5767 206.319C36.2573 211.508 35.9261 208.604 45.7382 198.96C54.3954 190.448 63.7262 184.443 73.2071 181.279C77.7437 179.765 124.127 180.698 129.894 182.419ZM317.676 191.615C320.586 203.65 320.031 220.619 316.511 227.258C313.514 232.911 279.303 260.999 277.551 259.244C277.073 258.766 278.977 255.757 281.783 252.558C288.075 245.383 292.229 237.335 299.469 218.299C302.555 210.187 306.979 198.558 309.302 192.459C311.625 186.359 314.041 181.949 314.674 182.659C315.305 183.368 316.656 187.399 317.676 191.615ZM153.162 193.722C152.19 194.894 149.141 200.513 146.386 206.206C139.639 220.155 132.711 229.515 125.36 234.614C118.473 239.393 99.3074 245.773 99.3074 243.287C99.3074 241.45 114.791 222.177 127.099 208.692C131.647 203.712 139.156 197.446 143.786 194.77C152.027 190.006 156.673 189.486 153.162 193.722ZM133.564 193.749C132.447 195.097 130.497 196.199 129.231 196.199C127.966 196.199 123.25 198.068 118.749 200.35C104.823 207.417 42.5801 221.61 39.4154 218.441C37.6586 216.682 44.014 212.913 58.5257 207.105C79.636 198.656 109.059 192.17 129.277 191.507C134.719 191.329 135.313 191.639 133.564 193.749ZM351.216 214.574C349.671 244.618 345.304 259.932 333.005 278.442C328.739 284.861 325.491 290.849 325.786 291.747C326.083 292.645 325.802 292.856 325.161 292.214C324.522 291.574 320.24 294.37 315.646 298.429C305.26 307.606 286.831 316.697 274.351 318.801C262.62 320.779 246.283 319.276 235.518 315.23C230.788 313.452 223.157 312.165 217.348 312.165C209.984 312.163 206.332 311.351 203.554 309.099C199.462 305.782 199.5 305.454 205.97 288.48C207.338 284.887 208.491 278.473 208.531 274.227C208.602 266.47 214.291 248.855 219.09 241.52C220.506 239.357 221.294 237.095 220.843 236.493C220.392 235.892 220.379 235.634 220.814 235.921C221.251 236.208 225.471 232.71 230.194 228.148C242.383 216.375 265.795 201.396 275.522 199.147C279.98 198.118 284.008 197.656 284.474 198.122C286.714 200.366 276.646 234.36 269.065 250.14C262.439 263.939 260.845 268.907 260.826 275.822C260.813 280.538 261.472 284.397 262.287 284.397C263.105 284.397 269.896 278.321 277.377 270.896C284.859 263.471 297.303 252.488 305.027 246.487C322.367 233.019 324.933 228.339 325.437 209.266C325.639 201.63 325.86 195.2 325.928 194.974C325.998 194.749 331.947 194.566 339.15 194.566H352.245L351.216 214.574ZM242.98 226.27C239.944 229.932 243.711 230.802 246.971 227.193C249.428 224.475 249.495 223.965 247.389 223.965C246.016 223.965 244.03 225.002 242.98 226.27ZM494.768 237.755C493.655 242.196 495.112 245.758 497.449 244.311C499.477 243.057 499.405 233.765 497.368 233.765C496.489 233.765 495.317 235.56 494.768 237.755ZM231.766 238.992C229.419 241.342 229.181 245.198 231.383 245.198C232.837 245.198 236.334 240.083 236.334 237.956C236.334 236.37 233.814 236.942 231.766 238.992ZM425.561 241.575C433.156 245.334 434.92 247.08 437.047 252.955C440.216 261.704 451.805 273.642 461.416 278.057C481.295 287.19 481.391 287.286 476.16 292.908L472.927 296.384L463.413 287.298C458.18 282.3 449.725 275.538 444.622 272.27C439.52 269.003 432.649 263.963 429.352 261.072C420.189 253.035 410.774 236.888 415.366 237.084C416.039 237.113 420.626 239.134 425.561 241.575ZM468.842 246.9C472.46 248.63 479.434 253.598 484.339 257.939C489.244 262.281 496.48 267.105 500.418 268.66C512.269 273.338 532.279 289.157 529.66 291.776C527.736 293.705 489.161 271.657 476.13 261.182C468.504 255.052 460.245 249.134 457.779 248.035C455.312 246.934 453.293 245.032 453.293 243.805C453.293 241.099 459.139 242.263 468.842 246.9ZM453.78 251.69C457.989 254.363 464.557 259.362 468.374 262.8C480.654 273.858 488.024 278.844 504.733 287.394C513.736 292.002 522.545 296.862 524.308 298.198C530.884 303.175 520.343 300.98 509.836 295.183C504.307 292.134 497.949 289.111 495.706 288.466C493.463 287.822 487.957 284.928 483.471 282.034C478.985 279.14 472.011 275.483 467.974 273.907C458.221 270.099 446.911 260.643 444.125 253.964C442.887 250.996 441.874 248.179 441.874 247.7C441.874 245.582 446.719 247.205 453.78 251.69ZM388.042 292.425C388.042 294.421 371.212 306.991 356.596 315.91C327.119 333.901 310.88 343.246 310.229 342.595C309.103 341.468 317.294 326.198 322.075 320.509C327.603 313.93 344.666 301.695 354.205 297.472C360.203 294.814 371.065 292.65 386.003 291.136C387.125 291.023 388.042 291.603 388.042 292.425ZM392.936 301.601C392.936 306.904 384.354 320.679 375.799 329.109C369.759 335.062 363.55 339.253 356.653 342.038C345.756 346.435 313.26 353.098 312.074 351.178C311.301 349.925 320.372 344.052 353.012 324.673C364.698 317.734 377.912 309.2 382.375 305.708C391.489 298.579 392.936 298.016 392.936 301.601ZM419.367 338.704C418.718 351.718 416.393 362.795 414.312 362.795C412.198 362.795 410.765 343.697 412.539 339.144C413.421 336.881 414.858 333.192 415.733 330.946C418.578 323.644 419.971 326.615 419.367 338.704ZM407.594 357.487C407.562 371.359 406.444 374.228 401.072 374.228C396.728 374.228 374.59 382.739 370.651 385.923C369.447 386.896 368.351 386.795 367.641 385.647C366.333 383.527 373.68 371.806 379.744 366.343C385.032 361.575 404.709 348.096 406.376 348.096C407.059 348.096 407.607 352.323 407.594 357.487ZM427.183 358.304C427.174 367.153 424.75 378.427 422.568 379.778C421.886 380.2 420.287 379.902 419.015 379.115C417.059 377.905 417.26 375.95 420.317 366.449C422.303 360.27 423.93 353.98 423.93 352.471C423.93 350.964 424.664 349.729 425.561 349.729C426.458 349.729 427.187 353.588 427.183 358.304ZM440.712 360.754C444.87 370.098 448.909 384.03 451.523 398.03C452.443 402.966 452.141 409.236 450.598 417.158C449.337 423.64 447.211 436.587 445.874 445.93C444.185 457.727 442.125 465.338 439.136 470.838C436.768 475.195 434.396 478.757 433.866 478.757C432.021 478.753 433.102 410.883 435.172 396.8C436.76 385.995 436.836 379.198 435.491 368.218C433.365 350.859 433.376 351.362 435.125 351.362C435.9 351.362 438.414 355.589 440.712 360.754ZM402.787 386.014L407.167 391.267L411.358 386.422C414.545 382.736 416.007 382.031 417.468 383.469C418.938 384.918 418.201 388.446 414.318 398.525C408.022 414.876 407.818 424.891 413.358 446.007C415.583 454.493 417.405 463.365 417.405 465.724C417.405 473.655 412.506 484.494 404.483 494.318C390.623 511.289 393.477 515.912 410.896 504.697C416.718 500.947 422.811 496.502 424.435 494.816C426.059 493.132 428.075 492.178 428.915 492.699C432.388 494.849 421.595 508.444 412.827 512.965C404.511 517.253 373.648 522.995 353.725 523.96C335.491 524.846 332.959 524.638 330.373 522.05C328.019 519.693 327.724 517.881 328.802 512.428C330.163 505.55 330.341 492.095 329.45 463.225C328.634 436.803 336.942 413.764 351.04 403.348C358.628 397.743 392.435 380.801 396.079 380.776C397.36 380.768 400.379 383.125 402.787 386.014ZM430.455 387.889C430.455 390.011 429.646 395.708 428.657 400.547C427.667 405.388 426.948 423.297 427.057 440.372C427.248 470.282 425.789 481.735 422.083 479.442C421.274 478.942 421.028 477.862 421.533 477.042C423.732 473.48 422.297 452.816 419.157 442.827C412.47 421.563 412.951 415.696 423.225 393.227C427.664 383.52 430.455 381.459 430.455 387.889ZM351.299 423.35C350.077 427.206 351.115 428.963 353.676 427.377C355.816 426.054 355.996 419.961 353.895 419.961C353.058 419.961 351.89 421.486 351.299 423.35ZM343.313 446.229C341.605 451.222 341.634 454.766 343.386 455.383C345.658 456.184 347.555 447.472 345.557 445.412C344.684 444.512 343.789 444.837 343.313 446.229Z" fill="black" fill-opacity="0.3"/>
<g filter="url(#filter0_g_214_88)">
<path d="M180.095 183.199C171.062 183.199 162.801 180.921 155.314 176.363C147.909 171.806 142.009 165.702 137.614 158.053C133.301 150.322 131.145 141.736 131.145 132.296L131.389 54.293C131.389 45.0156 133.505 36.6335 137.736 29.1465C141.968 21.5781 147.787 15.5153 155.192 10.958C162.679 6.31934 170.98 4 180.095 4C189.372 4 197.632 6.23796 204.875 10.7139C212.199 15.1898 218.018 21.2526 222.331 28.9023C226.726 36.4707 228.923 44.9342 228.923 54.293V65.7676C228.923 66.4186 228.597 66.7441 227.946 66.7441H199.87C199.219 66.7441 198.894 66.4186 198.894 65.7676V54.293C198.894 48.7591 197.103 43.9984 193.522 40.0107C189.942 36.0231 185.466 34.0293 180.095 34.0293C174.154 34.0293 169.597 36.0638 166.423 40.1328C163.249 44.2018 161.662 48.9219 161.662 54.293V132.296C161.662 138.399 163.452 143.404 167.033 147.311C170.614 151.135 174.968 153.048 180.095 153.048C185.466 153.048 189.942 150.932 193.522 146.7C197.103 142.387 198.894 137.586 198.894 132.296V120.699C198.894 120.048 199.219 119.723 199.87 119.723H228.19C228.841 119.723 229.167 120.048 229.167 120.699V132.296C229.167 141.655 226.97 150.2 222.575 157.931C218.099 165.58 212.199 171.725 204.875 176.363C197.551 180.921 189.291 183.199 180.095 183.199ZM329.143 180.758H248.332C247.681 180.758 247.355 180.351 247.355 179.537L247.6 8.02832C247.6 7.21452 248.007 6.80762 248.82 6.80762H276.652C277.466 6.80762 277.873 7.21452 277.873 8.02832L277.629 149.996H329.143C329.956 149.996 330.363 150.403 330.363 151.217V179.537C330.363 180.351 329.956 180.758 329.143 180.758ZM428.508 180.758H347.697C347.046 180.758 346.721 180.351 346.721 179.537L346.965 7.78418C346.965 7.13314 347.29 6.80762 347.941 6.80762H428.264C428.915 6.80762 429.24 7.21452 429.24 8.02832V35.9824C429.24 36.6335 428.915 36.959 428.264 36.959H376.994V76.0215H428.264C428.915 76.0215 429.24 76.347 429.24 76.998L429.484 105.318C429.484 105.969 429.159 106.295 428.508 106.295H376.994V149.996H428.508C429.159 149.996 429.484 150.403 429.484 151.217V179.781C429.484 180.432 429.159 180.758 428.508 180.758ZM144.572 370.758H116.252C115.601 370.758 115.275 370.351 115.275 369.537L115.764 197.784C115.764 197.133 116.089 196.808 116.74 196.808H147.258C147.909 196.808 148.479 197.133 148.967 197.784L171.794 230.743L194.499 197.784C194.987 197.133 195.598 196.808 196.33 196.808H226.97C227.702 196.808 228.068 197.133 228.068 197.784L228.557 369.537C228.557 370.351 228.231 370.758 227.58 370.758H199.26C198.609 370.758 198.283 370.351 198.283 369.537L198.039 241.974L171.794 280.06L145.793 241.974L145.549 369.537C145.549 370.351 145.223 370.758 144.572 370.758ZM331.34 370.758H250.529C249.878 370.758 249.553 370.351 249.553 369.537L249.797 197.784C249.797 197.133 250.122 196.808 250.773 196.808H331.096C331.747 196.808 332.072 197.215 332.072 198.028V225.982C332.072 226.633 331.747 226.959 331.096 226.959H279.826V266.021H331.096C331.747 266.021 332.072 266.347 332.072 266.998L332.316 295.318C332.316 295.969 331.991 296.295 331.34 296.295H279.826V339.996H331.34C331.991 339.996 332.316 340.403 332.316 341.217V369.781C332.316 370.432 331.991 370.758 331.34 370.758ZM381.755 370.758H356.73C355.428 370.758 354.777 370.188 354.777 369.049L354.533 198.761C354.533 197.459 355.184 196.808 356.486 196.808H379.069L421.306 295.318L420.085 198.761C420.085 197.459 420.817 196.808 422.282 196.808H447.062C448.039 196.808 448.527 197.459 448.527 198.761L448.771 369.293C448.771 370.27 448.365 370.758 447.551 370.758H425.578L382.243 278.717L384.074 368.805C384.074 370.107 383.301 370.758 381.755 370.758ZM159.465 560.758H131.267C130.534 560.758 130.168 560.351 130.168 559.537V416.959H97.6973C96.8835 416.959 96.4766 416.552 96.4766 415.738L96.7207 387.784C96.7207 387.133 97.0462 386.808 97.6973 386.808H192.668C193.563 386.808 194.011 387.133 194.011 387.784V415.738C194.011 416.552 193.685 416.959 193.034 416.959H160.197L160.441 559.537C160.441 560.351 160.116 560.758 159.465 560.758ZM235.759 560.758H207.438C206.625 560.758 206.218 560.351 206.218 559.537L206.462 387.784C206.462 387.133 206.787 386.808 207.438 386.808H235.515C236.166 386.808 236.491 387.133 236.491 387.784L236.735 559.537C236.735 560.351 236.41 560.758 235.759 560.758ZM285.93 560.758H260.905C259.603 560.758 258.952 560.188 258.952 559.049L258.708 388.761C258.708 387.459 259.359 386.808 260.661 386.808H283.244L325.48 485.318L324.26 388.761C324.26 387.459 324.992 386.808 326.457 386.808H351.237C352.214 386.808 352.702 387.459 352.702 388.761L352.946 559.293C352.946 560.27 352.539 560.758 351.726 560.758H329.753L286.418 468.717L288.249 558.805C288.249 560.107 287.476 560.758 285.93 560.758ZM456.462 560.758H375.651C375 560.758 374.675 560.351 374.675 559.537L374.919 387.784C374.919 387.133 375.244 386.808 375.896 386.808H456.218C456.869 386.808 457.194 387.215 457.194 388.028V415.982C457.194 416.633 456.869 416.959 456.218 416.959H404.948V456.021H456.218C456.869 456.021 457.194 456.347 457.194 456.998L457.438 485.318C457.438 485.969 457.113 486.295 456.462 486.295H404.948V529.996H456.462C457.113 529.996 457.438 530.403 457.438 531.217V559.781C457.438 560.432 457.113 560.758 456.462 560.758Z" fill="#E8B009" style="mix-blend-mode:multiply"/>
</g>
<path fill-rule="evenodd" clip-rule="evenodd" d="M485.918 52.4989C484.572 53.2012 477.599 55.0321 470.421 56.569C452.04 60.502 438.649 65.1667 432.644 69.7268C429.811 71.8779 423.938 74.8178 419.594 76.2584C415.25 77.6989 400.317 85.0275 386.411 92.5439C372.504 100.06 353.418 109.308 343.998 113.096C328.75 119.227 324.9 120.098 308.925 121.029C292.33 121.996 290.092 122.539 279.161 128.258C258.968 138.82 246.989 152.45 240.624 172.108C239.456 175.716 227.373 176.038 219.333 172.675C211.167 169.26 201.293 159.582 195.518 149.34C192.699 144.337 186.872 136.721 182.571 132.413C171.708 121.538 163.328 119.207 139.905 120.55C122.331 121.556 121.773 121.476 103.518 115.361C93.3223 111.944 83.799 109.604 82.3553 110.157C77.7584 111.923 79.5153 117.671 86.918 125.081C98.9176 137.095 114.756 143.679 142.055 147.998C170.046 152.427 174.546 153.82 191.066 163.164C199.813 168.112 206.971 172.69 206.971 173.335C206.971 173.982 202.749 174.95 197.591 175.491C190.75 176.205 185.342 175.618 177.608 173.322C171.777 171.59 157.462 168.277 145.799 165.956C129.528 162.72 122.124 160.362 113.989 155.826C98.2308 147.04 94.0417 144.92 69.7554 133.435C46.0188 122.209 31.9442 113.359 18.6739 101.308C3.74612 87.7535 -1.12974 87.1704 0.212791 99.1C1.53901 110.883 10.1733 126.917 20.7961 137.324C36.6227 152.83 58.989 160.482 95.2293 162.794C105.098 163.422 117.578 165.247 122.961 166.847C128.344 168.446 139.722 170.947 148.245 172.404C169.749 176.079 171.339 176.495 170.297 178.187C168.131 181.696 154.614 181.722 134.887 178.258C119.085 175.483 109.81 174.821 92.6959 175.243C72.5677 175.739 69.9952 176.159 61.4751 180.348C49.2813 186.344 37.161 197.426 30.1368 209.006C27.0194 214.144 22.1958 220.375 19.4177 222.853C13.4897 228.142 14.413 231.147 21.6069 229.987C34.8838 227.844 84.7794 217.105 99.42 213.239C108.434 210.86 116.158 209.259 116.583 209.685C117.757 210.861 93.9765 239.075 86.8658 244.943C83.4303 247.779 79.4092 250.098 77.9297 250.098C76.4485 250.098 74.3311 251.192 73.2235 252.528C68.0213 258.805 83.7337 256.714 111.08 247.491C131.786 240.509 139.065 233.238 153.96 204.655C162.627 188.025 166.72 185.305 187.557 182.341C196.888 181.013 212.118 179.912 221.398 179.896L238.272 179.866L237.115 188.441C236.479 193.158 235.31 198.254 234.515 199.766C230.509 207.4 235.324 208.142 242.146 200.942C244.781 198.163 254.278 190.535 263.25 183.995C278.612 172.797 280.204 172.038 290.574 170.955C296.631 170.323 301.585 170.365 301.585 171.048C301.585 171.731 298.562 176.933 294.869 182.61C289.003 191.624 287.504 192.938 283.042 192.972C272.326 193.057 262.938 196.694 247.859 206.61C227.14 220.232 217.964 229.855 209.999 246.32C204.957 256.741 203.209 262.686 202.081 273.27C201.232 281.232 199.245 289.522 197.277 293.317C192.89 301.774 193.035 307.683 197.761 313.186C201.172 317.156 203.136 317.788 215.297 318.838C222.83 319.488 233.008 321.192 237.913 322.624C249.758 326.084 274.501 326.072 284.807 322.602C301.736 316.901 310.604 311.299 324.595 297.464C335.495 286.684 339.954 280.841 344.538 271.331C352.665 254.464 356.611 236.788 357.844 211.716C358.653 195.286 359.643 188.9 362.219 183.487C364.049 179.641 366.317 171.004 367.256 164.296C368.196 157.588 369.478 152.1 370.103 152.1C371.336 152.1 384.314 166.908 392.29 177.416C399.449 186.85 400.792 191.716 401.523 210.899C402.02 223.9 403.033 229.976 405.713 236.014C409.832 245.298 410.518 260.076 406.965 263.029C405.709 264.072 403.03 269 401.012 273.978C396.789 284.396 394.007 286.011 380.187 286.07C367.751 286.124 358.209 288.497 346.526 294.44C328.282 303.722 316.956 314.745 307.146 332.767C299.097 347.55 285.952 366.062 283.502 366.062C282.682 366.062 282.009 367.532 282.009 369.328C282.009 373.407 284.344 373.47 289.915 369.542C300.792 361.871 310.909 358.583 345.573 351.457C372.845 345.85 394.559 323.818 401.2 295.014C404.397 281.149 407.978 268.946 409.27 267.519C409.947 266.769 411.575 267.69 412.886 269.564C414.772 272.26 415.178 278.063 414.829 297.334C414.413 320.287 414.121 322.244 409.779 331.165C405.73 339.482 403.19 342.049 388.858 352.305C376.422 361.203 371.091 366.228 366.428 373.446C363.064 378.653 360.31 384.479 360.31 386.391C360.31 388.768 357.594 391.7 351.746 395.639C340.127 403.464 333.776 412.338 328.266 428.449C323.483 442.435 322.902 451.297 324.176 490.876C324.375 497.093 323.719 506.133 322.716 510.968C321.166 518.442 321.294 520.369 323.559 523.831C327.786 530.29 333.161 531.462 353.785 530.425C371.129 529.553 402.229 523.949 413.005 519.753C419.493 517.228 430.391 508.118 433.026 503.017C434.254 500.639 436.011 495.342 436.926 491.246C437.843 487.151 440.758 480.383 443.405 476.205C448.898 467.532 448.89 467.565 453.559 437.927C459.121 402.613 459.113 399.866 453.377 379.176C447.813 359.104 443.543 349.6 432.696 333.158C420.53 314.714 419.627 311.035 420.671 284.17C421.085 273.537 420.61 270.807 417.463 265.709C415.433 262.418 414.203 259.292 414.733 258.763C415.261 258.233 419.566 261.098 424.298 265.129C429.031 269.16 436.205 274.512 440.242 277.023C444.28 279.533 452.831 286.262 459.247 291.976C465.661 297.689 471.692 302.363 472.648 302.363C473.604 302.363 477.015 300.052 480.228 297.228C485.818 292.312 486.35 292.177 492.598 294.05C496.19 295.128 502.733 298.138 507.141 300.74C511.547 303.342 518.302 306.368 522.15 307.467C531.24 310.064 560.219 309.909 563.423 307.247C566.188 304.949 565.173 302.363 561.504 302.363C555.567 302.363 541.428 293.186 531.292 282.751C525.294 276.575 517.953 270.284 514.979 268.77C512.005 267.256 509.33 265.805 509.033 265.549C508.738 265.291 509.588 263.364 510.924 261.265C515.225 254.501 517.477 238.415 517.512 214.166C517.553 186.661 515.402 176.187 505.598 156.184C494.241 133.015 483.336 123.436 455.74 112.395C444.479 107.89 440.203 105.277 437.388 101.182C433.024 94.8338 432.691 86.9761 436.453 79.0399C439.853 71.8681 450.431 66.8163 469.892 63.0712C486.324 59.9091 490.812 58.1893 490.812 55.0501C490.812 51.9011 488.937 50.9227 485.918 52.4989ZM414.142 86.4844C414.142 87.2259 412.206 89.6138 409.841 91.7926C407.475 93.9698 401.632 101 396.857 107.415L388.177 119.078L373.894 121.109C357.017 123.506 348.971 126.193 332.854 134.815C321.48 140.899 318.956 143.351 307.798 159.168C305.89 161.871 302.88 163.367 298.042 164.017C294.193 164.535 290.794 164.706 290.487 164.399C290.18 164.094 293.686 159.179 298.278 153.481C302.869 147.78 307.865 139.625 309.381 135.359C311.917 128.223 312.571 127.601 317.535 127.601C329.187 127.601 352.087 117.352 409.248 86.553C412.439 84.8332 414.142 84.8103 414.142 86.4844ZM427.2 90.4435C427.205 93.3639 429.018 98.6917 431.228 102.285C433.438 105.878 435.27 109.747 435.298 110.884C435.326 112.021 430.987 118.446 425.657 125.162C414.039 139.8 404.299 158.839 403.133 169.188C402.666 173.333 401.72 176.513 401.028 176.255C398.909 175.46 371.728 145.985 371.749 144.506C371.76 143.741 374.294 141.481 377.378 139.48C380.463 137.481 388.114 129.202 394.379 121.084C407.152 104.537 424.108 85.2693 425.969 85.1892C426.643 85.1598 427.196 87.5232 427.2 90.4435ZM31.202 119.154C44.8736 128.383 59.2011 136.016 82.1563 146.301C91.1152 150.314 98.73 154.447 99.0758 155.486C99.5374 156.874 96.0857 157.075 86.0485 156.242C49.7332 153.229 25.734 140.123 13.1145 116.416C6.03152 103.111 6.22075 99.603 13.6659 106.149C16.8077 108.911 24.6981 114.762 31.202 119.154ZM460.562 120.094C480.762 129.545 490.074 138.309 499.485 156.726C508.705 174.767 510.028 179.092 511.809 197.016C513.553 214.571 511.829 238.864 507.839 252.979C504.464 264.914 502.927 265.118 491.053 255.207C470.561 238.101 460.686 234.363 442.719 236.911C433.561 238.209 430.786 237.99 425.016 235.514C421.253 233.899 417.176 231.376 415.958 229.906C414.739 228.434 412.765 227.232 411.57 227.232C408.116 227.232 407.134 217.311 407.945 190.587L408.7 165.712L415.501 152.252C419.24 144.849 426.338 134.026 431.27 128.204C436.205 122.379 440.242 116.555 440.242 115.258C440.242 111.493 444.189 112.433 460.562 120.094ZM104.074 122.258C114.116 126.43 116.375 126.719 139.274 126.75C167.879 126.791 169.571 127.384 182.298 141.842C193.05 154.052 193.099 156.661 182.476 151.271C176.84 148.411 167.579 146.101 152.705 143.846C128.256 140.138 118.793 137.463 105.567 130.516C95.8703 125.424 87.2263 117.801 91.1462 117.801C92.3533 117.801 98.1704 119.807 104.074 122.258ZM381.517 125.778C381.517 128.351 368.534 139.049 361.473 142.294C343.402 150.601 320.566 158.692 319.16 157.284C313.888 152.006 345.298 132.323 366.835 127.41C381.879 123.978 381.517 124.018 381.517 125.778ZM296.691 128.447C296.691 128.913 285.313 140.555 271.406 154.318C257.5 168.082 246.122 178.176 246.123 176.747C246.125 171.288 255.837 154.251 262.762 147.561C271.272 139.338 296.691 125.017 296.691 128.447ZM303.17 136.992C303.146 137.667 300.963 141.077 298.322 144.573C295.681 148.068 293.98 151.672 294.541 152.582C295.104 153.494 294.823 153.779 293.918 153.219C293.012 152.659 290.513 154.109 288.363 156.442C281.796 163.573 256.826 181.805 256.201 179.928C255.443 177.647 271.108 161.275 287.719 146.99C300.187 136.269 303.271 134.273 303.17 136.992ZM472.868 144.551C472.868 145.788 473.904 147.661 475.17 148.713C478.272 151.292 480.39 147.921 477.703 144.679C475.215 141.678 472.868 141.616 472.868 144.551ZM363.876 150.944C364.313 159.955 358.151 181.64 354.126 185.248C350.144 188.818 324.838 189.717 322.768 186.362C320.387 182.502 318.928 166.748 320.781 164.892C322.763 162.908 360.537 148.84 362.472 149.366C363.212 149.567 363.844 150.278 363.876 150.944ZM484.287 160.719C484.287 161.867 485.473 164.502 486.923 166.575C490.725 172.01 493.626 168.494 489.96 162.892C486.98 158.338 484.287 157.307 484.287 160.719ZM299.472 201.267C295.539 211.505 291.043 223.366 289.484 227.624C287.923 231.88 285.97 235.784 285.143 236.295C279.928 239.522 290.481 202.683 298.735 188.849C307.978 173.359 308.275 178.36 299.472 201.267ZM129.894 182.419C136.725 184.458 133.615 186.117 120.922 187.203C99.8506 189.006 61.2891 198.922 46.5767 206.319C36.2573 211.508 35.9261 208.604 45.7382 198.96C54.3954 190.448 63.7262 184.443 73.2071 181.279C77.7437 179.765 124.127 180.698 129.894 182.419ZM317.676 191.615C320.586 203.65 320.031 220.619 316.511 227.258C313.514 232.911 279.303 260.999 277.551 259.244C277.073 258.766 278.977 255.757 281.783 252.558C288.075 245.383 292.229 237.335 299.469 218.299C302.555 210.187 306.979 198.558 309.302 192.459C311.625 186.359 314.041 181.949 314.674 182.659C315.305 183.368 316.656 187.399 317.676 191.615ZM153.162 193.722C152.19 194.894 149.141 200.513 146.386 206.206C139.639 220.155 132.711 229.515 125.36 234.614C118.473 239.393 99.3074 245.773 99.3074 243.287C99.3074 241.45 114.791 222.177 127.099 208.692C131.647 203.712 139.156 197.446 143.786 194.77C152.027 190.006 156.673 189.486 153.162 193.722ZM133.564 193.749C132.447 195.097 130.497 196.199 129.231 196.199C127.966 196.199 123.25 198.068 118.749 200.35C104.823 207.417 42.5801 221.61 39.4154 218.441C37.6586 216.682 44.014 212.913 58.5257 207.105C79.636 198.656 109.059 192.17 129.277 191.507C134.719 191.329 135.313 191.639 133.564 193.749ZM351.216 214.574C349.671 244.618 345.304 259.932 333.005 278.442C328.739 284.861 325.491 290.849 325.786 291.747C326.083 292.645 325.802 292.856 325.161 292.214C324.522 291.574 320.24 294.37 315.646 298.429C305.26 307.606 286.831 316.697 274.351 318.801C262.62 320.779 246.283 319.276 235.518 315.23C230.788 313.452 223.157 312.165 217.348 312.165C209.984 312.163 206.332 311.351 203.554 309.099C199.462 305.782 199.5 305.454 205.97 288.48C207.338 284.887 208.491 278.473 208.531 274.227C208.602 266.47 214.291 248.855 219.09 241.52C220.506 239.357 221.294 237.095 220.843 236.493C220.392 235.892 220.379 235.634 220.814 235.921C221.251 236.208 225.471 232.71 230.194 228.148C242.383 216.375 265.795 201.396 275.522 199.147C279.98 198.118 284.008 197.656 284.474 198.122C286.714 200.366 276.646 234.36 269.065 250.14C262.439 263.939 260.845 268.907 260.826 275.822C260.813 280.538 261.472 284.397 262.287 284.397C263.105 284.397 269.896 278.321 277.377 270.896C284.859 263.471 297.303 252.488 305.027 246.487C322.367 233.019 324.933 228.339 325.437 209.266C325.639 201.63 325.86 195.2 325.928 194.974C325.998 194.749 331.947 194.566 339.15 194.566H352.245L351.216 214.574ZM242.98 226.27C239.944 229.932 243.711 230.802 246.971 227.193C249.428 224.475 249.495 223.965 247.389 223.965C246.016 223.965 244.03 225.002 242.98 226.27ZM494.768 237.755C493.655 242.196 495.112 245.758 497.449 244.311C499.477 243.057 499.405 233.765 497.368 233.765C496.489 233.765 495.317 235.56 494.768 237.755ZM231.766 238.992C229.419 241.342 229.181 245.198 231.383 245.198C232.837 245.198 236.334 240.083 236.334 237.956C236.334 236.37 233.814 236.942 231.766 238.992ZM425.561 241.575C433.156 245.334 434.92 247.08 437.047 252.955C440.216 261.704 451.805 273.642 461.416 278.057C481.295 287.19 481.391 287.286 476.16 292.908L472.927 296.384L463.413 287.298C458.18 282.3 449.725 275.538 444.622 272.27C439.52 269.003 432.649 263.963 429.352 261.072C420.189 253.035 410.774 236.888 415.366 237.084C416.039 237.113 420.626 239.134 425.561 241.575ZM468.842 246.9C472.46 248.63 479.434 253.598 484.339 257.939C489.244 262.281 496.48 267.105 500.418 268.66C512.269 273.338 532.279 289.157 529.66 291.776C527.736 293.705 489.161 271.657 476.13 261.182C468.504 255.052 460.245 249.134 457.779 248.035C455.312 246.934 453.293 245.032 453.293 243.805C453.293 241.099 459.139 242.263 468.842 246.9ZM453.78 251.69C457.989 254.363 464.557 259.362 468.374 262.8C480.654 273.858 488.024 278.844 504.733 287.394C513.736 292.002 522.545 296.862 524.308 298.198C530.884 303.175 520.343 300.98 509.836 295.183C504.307 292.134 497.949 289.111 495.706 288.466C493.463 287.822 487.957 284.928 483.471 282.034C478.985 279.14 472.011 275.483 467.974 273.907C458.221 270.099 446.911 260.643 444.125 253.964C442.887 250.996 441.874 248.179 441.874 247.7C441.874 245.582 446.719 247.205 453.78 251.69ZM388.042 292.425C388.042 294.421 371.212 306.991 356.596 315.91C327.119 333.901 310.88 343.246 310.229 342.595C309.103 341.468 317.294 326.198 322.075 320.509C327.603 313.93 344.666 301.695 354.205 297.472C360.203 294.814 371.065 292.65 386.003 291.136C387.125 291.023 388.042 291.603 388.042 292.425ZM392.936 301.601C392.936 306.904 384.354 320.679 375.799 329.109C369.759 335.062 363.55 339.253 356.653 342.038C345.756 346.435 313.26 353.098 312.074 351.178C311.301 349.925 320.372 344.052 353.012 324.673C364.698 317.734 377.912 309.2 382.375 305.708C391.489 298.579 392.936 298.016 392.936 301.601ZM419.367 338.704C418.718 351.718 416.393 362.795 414.312 362.795C412.198 362.795 410.765 343.697 412.539 339.144C413.421 336.881 414.858 333.192 415.733 330.946C418.578 323.644 419.971 326.615 419.367 338.704ZM407.594 357.487C407.562 371.359 406.444 374.228 401.072 374.228C396.728 374.228 374.59 382.739 370.651 385.923C369.447 386.896 368.351 386.795 367.641 385.647C366.333 383.527 373.68 371.806 379.744 366.343C385.032 361.575 404.709 348.096 406.376 348.096C407.059 348.096 407.607 352.323 407.594 357.487ZM427.183 358.304C427.174 367.153 424.75 378.427 422.568 379.778C421.886 380.2 420.287 379.902 419.015 379.115C417.059 377.905 417.26 375.95 420.317 366.449C422.303 360.27 423.93 353.98 423.93 352.471C423.93 350.964 424.664 349.729 425.561 349.729C426.458 349.729 427.187 353.588 427.183 358.304ZM440.712 360.754C444.87 370.098 448.909 384.03 451.523 398.03C452.443 402.966 452.141 409.236 450.598 417.158C449.337 423.64 447.211 436.587 445.874 445.93C444.185 457.727 442.125 465.338 439.136 470.838C436.768 475.195 434.396 478.757 433.866 478.757C432.021 478.753 433.102 410.883 435.172 396.8C436.76 385.995 436.836 379.198 435.491 368.218C433.365 350.859 433.376 351.362 435.125 351.362C435.9 351.362 438.414 355.589 440.712 360.754ZM402.787 386.014L407.167 391.267L411.358 386.422C414.545 382.736 416.007 382.031 417.468 383.469C418.938 384.918 418.201 388.446 414.318 398.525C408.022 414.876 407.818 424.891 413.358 446.007C415.583 454.493 417.405 463.365 417.405 465.724C417.405 473.655 412.506 484.494 404.483 494.318C390.623 511.289 393.477 515.912 410.896 504.697C416.718 500.947 422.811 496.502 424.435 494.816C426.059 493.132 428.075 492.178 428.915 492.699C432.388 494.849 421.595 508.444 412.827 512.965C404.511 517.253 373.648 522.995 353.725 523.96C335.491 524.846 332.959 524.638 330.373 522.05C328.019 519.693 327.724 517.881 328.802 512.428C330.163 505.55 330.341 492.095 329.45 463.225C328.634 436.803 336.942 413.764 351.04 403.348C358.628 397.743 392.435 380.801 396.079 380.776C397.36 380.768 400.379 383.125 402.787 386.014ZM430.455 387.889C430.455 390.011 429.646 395.708 428.657 400.547C427.667 405.388 426.948 423.297 427.057 440.372C427.248 470.282 425.789 481.735 422.083 479.442C421.274 478.942 421.028 477.862 421.533 477.042C423.732 473.48 422.297 452.816 419.157 442.827C412.47 421.563 412.951 415.696 423.225 393.227C427.664 383.52 430.455 381.459 430.455 387.889ZM351.299 423.35C350.077 427.206 351.115 428.963 353.676 427.377C355.816 426.054 355.996 419.961 353.895 419.961C353.058 419.961 351.89 421.486 351.299 423.35ZM343.313 446.229C341.605 451.222 341.634 454.766 343.386 455.383C345.658 456.184 347.555 447.472 345.557 445.412C344.684 444.512 343.789 444.837 343.313 446.229Z" fill="#202020" style="mix-blend-mode:hue"/>
<defs>
<filter id="filter0_g_214_88" x="92.4766" y="0" width="368.962" height="564.758" filterUnits="userSpaceOnUse" color-interpolation-filters="sRGB">
<feFlood flood-opacity="0" result="BackgroundImageFix"/>
<feBlend mode="normal" in="SourceGraphic" in2="BackgroundImageFix" result="shape"/>
<feTurbulence type="fractalNoise" baseFrequency="0.25 0.25" numOctaves="3" seed="5142" />
<feDisplacementMap in="shape" scale="8" xChannelSelector="R" yChannelSelector="G" result="displacedImage" width="100%" height="100%" />
<feMerge result="effect1_texture_214_88">
<feMergeNode in="displacedImage"/>
</feMerge>
</filter>
</defs>
</svg>
